<svg width="100" height="100" viewBox="0 0 100 100" xmlns="http://www.w3.org/2000/svg">
  <!-- Strawberry Body -->
  <path d="M50 95 C20 90 5 65 5 40 C5 20 25 15 50 15 C75 15 95 20 95 40 C95 65 80 90 50 95 Z" fill="#E31E24" />
  <!-- Leaves -->
  <path d="M50 15 C40 5 30 10 25 15 C35 20 45 20 50 25 C55 20 65 20 75 15 C70 10 60 5 50 15" fill="#4CAF50" />
  <path d="M50 15 L50 5" stroke="#4CAF50" stroke-width="3" />
  <!-- Text -->
  <text x="50" y="65" font-family="Arial, sans-serif" font-size="35" font-weight="bold" fill="white" text-anchor="middle">OCd</text>
</svg>